<svg width="820.000000pt" height="818.000000pt" viewBox="0 0 820.000000 818.000000" xmlns="http://www.w3.org/2000/svg">
  <g transform="translate(0.000000,818.000000) scale(0.100000,-0.100000)" fill="#fefefe" stroke="none">
    <path d="M0 4090 l0 -4090 4100 0 4100 0 0 4090 0 4090 -4100 0 -4100 0 0
-4090z m4245 3200 c324 -29 597 -90 885 -197 114 -42 374 -166 485 -231 l80
-47 -212 -3 -213 -2 0 -550 0 -550 255 0 255 0 0 -255 0 -255 550 0 550 0 1
168 1 167 53 -110 c176 -367 281 -805 300 -1255 l7 -145 -11 -150 c-26 -355
-98 -677 -218 -979 -159 -403 -382 -752 -682 -1068 -139 -146 -411 -364 -616
-494 -403 -256 -850 -415 -1350 -480 l-130 -17 -240 0 -240 0 -130 17 c-283
36 -565 108 -815 207 -216 85 -485 230 -667 360 -44 33 -84 59 -88 59 -3 0
-50 35 -103 78 -134 108 -316 285 -426 416 -409 484 -649 1017 -747 1656 l-23
145 0 285 -1 285 18 125 c54 368 141 667 286 973 174 371 448 741 751 1012
149 134 184 160 375 287 492 327 1003 504 1590 551 96 8 369 6 470 -3z m2463
-397 l2 -253 255 0 255 0 0 -375 0 -375 -255 0 -255 0 0 -255 0 -255 -377 2
-378 3 -3 252 -2 253 -253 2 -252 3 0 370 0 370 253 3 252 2 0 249 c0 136 3
251 7 254 4 4 173 6 377 5 l371 -3 3 -252z" />
    <path d="M4506 5613 c-3 -10 -37 -160 -75 -333 -71 -322 -461 -2281 -461
-2318 l0 -20 253 -7 c138 -3 511 -5 827 -3 l575 3 80 23 c44 12 125 44 180 72
l100 49 105 85 105 84 58 77 c76 102 141 237 173 361 l27 99 0 155 0 155 -27
100 -26 100 -50 100 c-27 55 -76 133 -108 174 l-59 74 -94 74 -94 74 -110 54
-110 55 -85 21 -85 21 -465 9 c-255 5 -467 13 -471 17 -4 4 -35 154 -70 335
l-63 327 -12 0 c-7 0 -15 -8 -18 -17z" />
    <path d="M2423 4955 c-117 -21 -207 -56 -357 -138 -117 -64 -229 -172 -315
-304 -57 -86 -102 -188 -134 -301 l-21 -77 0 -175 1 -175 21 -77 c57 -210 182
-405 338 -528 35 -28 85 -63 111 -78 162 -88 264 -125 396 -142 45 -6 242 -14
437 -18 l355 -7 8 -50 c8 -50 119 -559 158 -728 l21 -87 12 0 12 0 43 223 c24
122 151 763 282 1425 131 661 239 1211 239 1221 l0 18 -397 6 c-219 4 -564 7
-768 6 l-370 -1 -72 -13z" />
  </g>
  <g transform="translate(0.000000,818.000000) scale(0.100000,-0.100000)" fill="#4e72de" stroke="none">
    <path d="M3725 7294 c-11 -1 -67 -8 -125 -14 -229 -26 -522 -96 -737 -176
-147 -54 -338 -144 -470 -220 -172 -98 -400 -255 -522 -359 -136 -117 -333
-323 -437 -456 -150 -193 -272 -388 -373 -599 -153 -321 -254 -672 -296 -1035
l-16 -140 -1 -225 0 -225 17 -140 c34 -289 108 -590 206 -832 109 -270 279
-570 446 -785 103 -134 257 -302 370 -403 108 -98 237 -205 247 -205 3 0 43
-27 88 -59 187 -133 417 -260 639 -351 266 -109 528 -178 849 -222 l95 -13
285 0 285 0 105 13 c159 21 381 67 536 113 480 140 903 383 1307 749 169 153
342 358 481 568 160 243 289 510 374 772 104 320 148 579 159 925 l6 200 -12
140 c-16 187 -36 323 -73 485 -49 217 -121 430 -210 623 l-41 87 -13 0 -14 0
0 -150 0 -150 -547 2 -548 3 -3 252 -2 253 -253 2 -252 3 0 540 0 540 203 3
203 2 -3 17 -3 16 -131 71 c-370 202 -798 333 -1233 376 -90 9 -531 12 -586 4z
m926 -2291 l10 -53 387 0 c213 0 428 -5 477 -10 231 -24 410 -106 613 -278 71
-60 163 -185 212 -285 21 -45 51 -122 66 -172 l28 -90 0 -175 0 -175 -28 -90
c-33 -112 -71 -193 -132 -287 l-46 -73 -81 -77 c-144 -139 -301 -229 -487
-280 l-85 -23 -800 3 c-440 2 -803 6 -807 10 -13 14 461 2375 538 2682 l7 25
59 -300 c32 -165 63 -324 69 -352z m-624 -47 c1 -1 -116 -600 -261 -1331 -145
-732 -274 -1385 -287 -1452 -12 -67 -24 -121 -25 -120 -5 4 -152 667 -174 779
-11 55 -22 103 -25 107 -4 3 -180 8 -393 12 l-387 7 -65 15 c-101 24 -176 53
-279 108 -114 61 -188 117 -264 199 -146 157 -240 356 -268 566 l-12 89 7 88
c4 48 17 129 30 180 44 168 121 309 242 437 89 94 156 144 279 207 108 56 240
99 345 112 36 4 396 6 800 3 404 -3 736 -5 737 -6z" />
    <path d="M5948 6898 l-3 -253 -252 -3 -253 -2 0 -380 0 -380 255 0 255 0 0
-255 0 -255 380 0 380 0 0 255 0 255 255 0 255 0 0 380 0 380 -252 2 -253 3
-3 253 -2 252 -380 0 -380 0 -2 -252z" />
  </g>
  <g transform="translate(0.000000,818.000000) scale(0.100000,-0.100000)" fill="#e7e7e8" stroke="none">
    <path d="M5945 7150 l-6 -10 391 0 391 0 -6 10 -6 10 -379 0 -379 0 -6 -10z" />
    <path d="M2861 7109 c-13 -5 -22 -12 -19 -15 8 -8 58 7 58 17 0 11 -8 11 -39
-2z" />
    <path d="M5090 7111 c0 -10 50 -25 58 -17 2 3 -7 10 -22 16 -33 12 -36 12 -36
1z" />
    <path d="M5670 6834 c0 -13 31 -35 41 -29 l10 7 -18 14 c-19 14 -33 18 -33 8z" />
    <path d="M2202 6772 l-84 -56 13 -5 c7 -2 15 1 17 8 2 6 10 11 18 11 8 0 14 5
14 10 0 6 7 10 15 10 8 0 15 5 15 10 0 6 7 10 15 10 8 0 15 5 15 10 0 6 7 10
15 10 8 0 15 5 15 10 0 6 7 10 15 10 8 0 15 5 15 10 0 6 -3 10 -7 9 -5 0 -46
-26 -91 -57z" />
    <path d="M2070 6680 l-25 -20 18 0 c9 0 17 5 17 10 0 6 7 10 15 10 8 0 15 5
15 10 0 15 -12 12 -40 -10z" />
    <path d="M1835 6500 l-18 -20 14 0 c16 0 39 19 39 32 0 14 -16 9 -35 -12z" />
    <path d="M1685 6360 c-32 -33 -56 -63 -52 -67 8 -7 127 105 127 119 0 18 -19
5 -75 -52z" />
    <path d="M1546 6211 c-11 -12 -16 -24 -12 -28 9 -9 39 22 34 37 l-4 12 -18
-21z" />
    <path d="M1426 6066 c-15 -21 -25 -40 -21 -44 4 -4 10 -1 12 6 3 7 14 22 25
32 11 10 18 24 16 30 l-4 12 -28 -36z" />
    <path d="M1329 5933 c-64 -91 -120 -180 -177 -278 -42 -75 -112 -211 -112
-220 0 -3 4 -5 8 -5 5 0 30 44 56 98 58 117 77 152 93 170 7 7 16 24 19 38 3
13 10 24 15 24 5 0 9 7 9 15 0 8 5 15 10 15 6 0 10 6 10 14 0 8 3 16 8 18 11
5 52 66 52 78 0 5 5 10 10 10 6 0 10 5 10 11 0 6 6 17 13 24 32 36 38 46 35
56 -2 6 -28 -25 -59 -68z" />
    <path d="M4506 5624 c-8 -30 0 -46 10 -20 3 9 10 13 15 10 5 -3 9 4 9 15 l0
21 -14 0 c-8 0 -17 -12 -20 -26z" />
    <path d="M6868 5375 l-3 -175 13 0 12 0 0 175 0 175 -10 0 -9 0 -3 -175z" />
    <path d="M1001 5349 c-41 -92 -123 -320 -116 -327 3 -3 7 -3 8 -1 2 2 19 47
37 99 18 52 51 137 73 188 44 105 43 140 -2 41z" />
    <path d="M870 4986 c-12 -33 -12 -36 -1 -36 10 0 25 50 17 58 -3 2 -10 -7 -16
-22z" />
    <path d="M2550 4970 l0 -10 125 0 125 0 0 10 0 10 -125 0 -125 0 0 -10z" />
    <path d="M2450 4960 c0 -5 11 -10 24 -10 14 0 28 5 31 10 l6 10 -30 0 c-17 0
-31 -4 -31 -10z" />
    <path d="M3485 4960 l6 -10 264 0 263 0 5 -12 c2 -7 8 -10 12 -6 4 4 5 14 2
23 l-6 15 -276 0 -276 0 6 -10z" />
    <path d="M4935 4950 l6 -10 225 0 224 0 0 10 0 10 -231 0 -230 0 6 -10z" />
    <path d="M2305 4930 c-67 -21 -274 -121 -275 -132 0 -15 23 -8 70 21 57 35
169 85 230 102 25 7 49 16 55 21 l9 8 -14 -1 c-8 0 -42 -8 -75 -19z" />
    <path d="M5525 4940 c3 -5 17 -10 31 -10 13 0 24 5 24 10 0 6 -14 10 -31 10
l-30 0 6 -10z" />
    <path d="M850 4916 c-12 -33 -12 -36 -1 -36 10 0 25 50 17 58 -3 2 -10 -7 -16
-22z" />
    <path d="M5656 4921 c5 -4 32 -14 59 -20 76 -18 242 -101 319 -160 37 -29 71
-49 75 -46 6 6 0 12 -49 45 -12 8 -28 21 -36 28 -7 6 -17 12 -23 12 -6 0 -11
3 -11 8 0 4 -8 12 -19 17 -10 6 -46 25 -79 43 -62 32 -201 82 -230 82 l-16 0
10 -9z" />
    <path d="M837 4863 c-2 -4 -8 -23 -12 -40 l-7 -33 10 0 c5 0 13 16 17 36 6 35
2 54 -8 37z" />
    <path d="M1990 4772 c0 -5 -11 -14 -25 -20 -14 -6 -25 -16 -25 -22 0 -16 13
-11 50 20 l34 30 -17 0 c-9 0 -17 -4 -17 -8z" />
    <path d="M6190 4612 c0 -5 9 -17 20 -27 22 -20 26 -14 10 16 -11 19 -30 26
-30 11z" />
    <path d="M6272 4513 c18 -41 92 -163 96 -159 7 7 -29 86 -38 86 -5 0 -11 11
-14 25 -4 14 -11 25 -16 25 -6 0 -10 7 -10 15 0 8 -5 15 -11 15 -6 0 -9 -3 -7
-7z" />
    <path d="M757 4413 c-11 -10 -8 -53 3 -53 6 0 10 14 10 30 0 31 -2 35 -13 23z" />
    <path d="M6375 4313 c5 -10 18 -51 30 -90 21 -73 35 -100 35 -70 0 30 -51 177
-62 177 l-10 0 7 -17z" />
    <path d="M1636 4284 c-9 -36 1 -43 14 -10 12 33 12 36 1 36 -5 0 -12 -12 -15
-26z" />
    <path d="M747 4293 c-11 -10 -8 -73 3 -73 l10 0 0 40 c0 41 -2 45 -13 33z" />
    <path d="M6440 4026 c0 -14 5 -28 10 -31 l10 -6 0 30 c0 17 -4 31 -10 31 -5 0
-10 -11 -10 -24z" />
    <path d="M740 3886 c0 -19 5 -38 10 -41 l10 -6 0 40 0 41 -10 0 c-5 0 -10 -15
-10 -34z" />
    <path d="M6447 3883 c-11 -10 -8 -53 3 -53 6 0 10 14 10 30 0 31 -2 35 -13 23z" />
    <path d="M750 3756 c0 -14 5 -28 10 -31 l10 -6 0 30 c0 17 -4 31 -10 31 -5 0
-10 -11 -10 -24z" />
    <path d="M6427 3730 c-3 -8 -13 -42 -22 -75 -24 -87 -97 -233 -155 -311 -28
-36 -48 -69 -44 -73 3 -3 11 3 18 13 6 10 19 26 29 35 9 8 17 21 17 28 0 7 5
13 10 13 6 0 10 7 10 15 0 8 4 15 10 15 5 0 12 11 16 25 3 14 10 25 14 25 20
0 117 265 107 292 l-5 13 -5 -15z" />
    <path d="M1740 3428 c0 -10 5 -18 10 -18 6 0 10 -7 10 -15 0 -8 5 -15 10 -15
15 0 12 12 -10 40 l-20 25 0 -17z" />
    <path d="M846 3233 c10 -43 100 -313 119 -357 9 -21 19 -36 22 -33 3 4 -13 55
-35 114 -23 60 -53 153 -68 206 -15 53 -31 97 -36 97 -5 0 -5 -12 -2 -27z" />
    <path d="M6075 3170 l-18 -20 14 0 c16 0 39 19 39 32 0 14 -16 9 -35 -12z" />
    <path d="M7066 3044 c-10 -31 -15 -58 -12 -61 6 -6 6 -5 31 66 17 51 18 51 7
51 -5 0 -16 -25 -26 -56z" />
    <path d="M2170 3051 c0 -11 59 -36 66 -28 3 3 -8 13 -25 21 -35 18 -41 19 -41
7z" />
    <path d="M2750 2950 l0 -10 51 0 50 0 -6 10 c-3 6 -26 10 -51 10 l-44 0 0 -10z" />
    <path d="M4120 2940 l0 -10 61 0 60 0 -6 10 c-3 6 -31 10 -61 10 l-54 0 0 -10z" />
    <path d="M5380 2930 l0 -10 40 0 40 0 0 10 0 10 -40 0 -40 0 0 -10z" />
    <path d="M1030 2725 c0 -3 25 -55 56 -116 30 -61 58 -108 62 -105 7 8 -99 226
-110 226 -4 0 -8 -2 -8 -5z" />
    <path d="M1200 2404 c0 -3 28 -49 62 -101 l62 -96 4 13 c3 8 0 16 -6 18 -7 2
-12 10 -12 18 0 8 -4 14 -10 14 -5 0 -10 7 -10 15 0 8 -4 15 -10 15 -5 0 -10
7 -10 15 0 8 -3 15 -8 15 -7 0 -25 30 -38 63 -6 16 -24 24 -24 11z" />
    <path d="M6750 2365 c0 -8 -4 -15 -10 -15 -5 0 -10 -6 -10 -14 0 -8 -5 -16
-11 -18 -7 -2 -10 -10 -8 -17 l5 -13 27 41 c15 22 27 43 27 46 0 3 -4 5 -10 5
-5 0 -10 -7 -10 -15z" />
    <path d="M3433 2099 c4 -13 7 -30 7 -36 0 -7 7 -13 15 -13 l15 0 0 21 0 20
-10 -6 c-5 -3 -10 1 -10 9 0 8 -5 18 -12 22 l-11 7 6 -24z" />
    <path d="M6442 1958 c-7 -7 -12 -19 -12 -27 l0 -14 20 18 c21 19 26 35 12 35
-4 0 -13 -5 -20 -12z" />
    <path d="M1570 1902 c0 -4 16 -23 35 -42 19 -19 35 -30 35 -26 0 12 -51 76
-61 76 -5 0 -9 -4 -9 -8z" />
    <path d="M6342 1847 c-18 -18 -32 -39 -32 -47 l0 -14 40 39 c22 21 40 43 40
47 0 16 -17 7 -48 -25z" />
    <path d="M6220 1725 c-24 -24 -40 -48 -37 -52 4 -4 31 16 60 45 l52 52 -16 0
c-8 0 -35 -20 -59 -45z" />
    <path d="M1772 1693 c21 -20 41 -34 45 -29 8 8 -54 65 -72 66 -5 0 7 -17 27
-37z" />
    <path d="M6100 1625 c-21 -25 -1 -31 23 -7 l21 22 -16 0 c-8 0 -21 -7 -28 -15z" />
    <path d="M1868 1608 c12 -12 25 -18 29 -14 4 4 -1 14 -11 22 -31 22 -43 17
-18 -8z" />
    <path d="M5934 1485 c-4 -8 -10 -15 -15 -15 -9 0 -21 -8 -54 -37 -7 -7 -18
-13 -24 -13 -6 0 -11 -4 -11 -9 0 -5 -13 -14 -30 -21 -16 -7 -30 -16 -30 -21
0 -5 -7 -9 -15 -9 -8 0 -15 -4 -15 -10 0 -5 -7 -10 -15 -10 -8 0 -15 -4 -15
-9 0 -5 -8 -11 -17 -15 -10 -3 -36 -17 -58 -30 -22 -14 -50 -30 -62 -35 -36
-17 -74 -43 -69 -49 6 -5 113 53 221 122 90 57 245 166 245 172 0 2 -7 4 -15
4 -9 0 -18 -7 -21 -15z" />
    <path d="M2170 1386 c0 -4 129 -86 136 -86 2 0 4 5 4 10 0 6 -7 10 -15 10 -8
0 -15 3 -15 8 0 7 -30 25 -62 38 -10 3 -18 10 -18 15 0 5 -7 9 -15 9 -8 0 -15
-2 -15 -4z" />
    <path d="M2510 1185 c0 -5 95 -55 105 -55 3 0 5 4 5 8 0 4 -20 18 -45 30 -44
21 -65 27 -65 17z" />
    <path d="M5365 1144 c-126 -61 -319 -133 -471 -176 -82 -23 -151 -44 -153 -45
-2 -2 -2 -6 1 -9 8 -7 198 46 332 93 108 37 365 148 380 163 l10 10 -14 -1
c-8 0 -46 -16 -85 -35z" />
    <path d="M2654 1115 c45 -34 411 -163 569 -201 l27 -6 0 9 c0 6 -26 16 -57 23
-94 21 -290 86 -421 140 -68 27 -126 50 -130 50 -4 0 2 -7 12 -15z" />
    <path d="M3265 912 c6 -5 25 -13 43 -17 l32 -7 0 11 c0 6 -8 11 -17 11 -10 0
-29 3 -43 6 l-25 7 10 -11z" />
    <path d="M4673 913 c-13 -2 -23 -9 -23 -14 l0 -11 33 7 c17 4 36 11 42 16 l9
9 -19 -1 c-11 -1 -30 -4 -42 -6z" />
    <path d="M3525 860 c3 -5 17 -10 31 -10 13 0 24 5 24 10 0 6 -14 10 -31 10
l-30 0 6 -10z" />
    <path d="M4410 860 c0 -5 11 -10 24 -10 14 0 28 5 31 10 l6 10 -30 0 c-17 0
-31 -4 -31 -10z" />
    <path d="M3605 850 c3 -5 17 -10 31 -10 13 0 24 5 24 10 0 6 -14 10 -31 10
l-30 0 6 -10z" />
    <path d="M4330 850 c0 -5 11 -10 24 -10 14 0 28 5 31 10 l6 10 -30 0 c-17 0
-31 -4 -31 -10z" />
    <path d="M3695 840 c3 -5 22 -10 41 -10 19 0 34 5 34 10 l0 10 -41 0 -40 0 6
-10z" />
    <path d="M4220 840 c0 -5 15 -10 34 -10 19 0 38 5 41 10 l6 10 -40 0 -41 0 0
-10z" />
    <path d="M3845 830 l6 -10 144 0 144 0 6 10 6 10 -156 0 -156 0 6 -10z" />
  </g>
  <g transform="translate(0.000000,818.000000) scale(0.100000,-0.100000)" fill="#5474d0" stroke="none">
    <path d="M3850 7300 l0 -10 145 0 145 0 0 10 0 10 -145 0 -145 0 0 -10z" />
    <path d="M3700 7290 c0 -5 11 -10 24 -10 14 0 28 5 31 10 l6 10 -30 0 c-17 0
-31 -4 -31 -10z" />
    <path d="M4235 7290 c3 -5 17 -10 31 -10 13 0 24 5 24 10 0 6 -14 10 -31 10
l-30 0 6 -10z" />
    <path d="M3520 7270 c0 -5 11 -10 24 -10 14 0 28 5 31 10 l6 10 -30 0 c-17 0
-31 -4 -31 -10z" />
    <path d="M3178 7208 c-21 -6 -38 -15 -38 -20 0 -6 6 -8 14 -5 8 3 31 9 50 13
38 7 60 25 29 23 -10 -1 -35 -6 -55 -11z" />
    <path d="M4744 7211 c3 -5 22 -12 42 -15 19 -4 42 -10 50 -13 8 -3 14 -1 14 5
0 5 -20 15 -44 21 -54 13 -69 14 -62 2z" />
    <path d="M3088 7183 c-10 -2 -18 -9 -18 -14 l0 -10 23 6 c12 4 26 11 32 16 l9
9 -14 -1 c-8 -1 -23 -3 -32 -6z" />
    <path d="M4866 7181 c5 -5 55 -23 111 -40 56 -17 110 -34 119 -38 l17 -6 -7
11 c-6 11 -215 82 -240 82 l-10 0 10 -9z" />
    <path d="M2900 7119 c-74 -28 -143 -53 -152 -56 -10 -3 -18 -9 -18 -14 0 -5 2
-9 4 -9 2 0 34 13 72 28 38 16 107 41 154 57 47 15 89 31 95 36 l9 9 -14 0
c-8 -1 -76 -23 -150 -51z" />
    <path d="M6700 6893 l5 -256 14 -5 14 -5 -6 17 c-4 10 -7 128 -7 262 l0 244
-12 0 -13 0 5 -257z" />
    <path d="M5136 7092 c5 -5 29 -17 54 -27 25 -9 51 -19 58 -22 6 -3 12 -1 12 3
0 9 -106 54 -125 54 l-9 0 10 -8z" />
    <path d="M2611 7000 c-46 -22 -82 -43 -79 -45 6 -6 178 71 178 80 0 10 -15 4
-99 -35z" />
    <path d="M5280 7035 c0 -5 55 -35 65 -35 3 0 5 4 5 9 0 5 -14 14 -31 20 -36
12 -39 13 -39 6z" />
    <path d="M2435 6911 c-9 -8 -30 -21 -110 -65 -48 -27 -195 -130 -191 -133 2
-3 37 18 78 45 40 27 115 73 166 102 50 29 92 54 92 56 0 8 -26 4 -35 -5z" />
    <path d="M5520 6915 c0 -6 56 -35 67 -35 13 1 -41 40 -54 40 -7 0 -13 -2 -13
-5z" />
    <path d="M1690 6355 c-35 -35 -62 -67 -59 -69 3 -3 36 26 74 64 38 39 65 70
59 70 -5 0 -38 -29 -74 -65z" />
    <path d="M6698 5630 l-3 -260 10 3 10 4 3 256 2 257 -10 0 -9 0 -3 -260z" />
    <path d="M4511 5657 c-14 -35 -14 -47 -1 -47 6 0 10 6 10 14 0 8 5 16 12 18
l11 4 -11 20 -11 19 -10 -28z" />
    <path d="M6880 5504 c0 -8 4 -13 8 -10 5 3 18 -16 31 -41 12 -25 24 -43 27
-40 3 3 -4 28 -17 56 l-21 51 -14 0 c-8 0 -14 -7 -14 -16z" />
    <path d="M7030 5197 c0 -3 55 -169 65 -196 3 -8 8 -11 11 -8 8 7 -58 207 -68
207 -4 0 -8 -1 -8 -3z" />
    <path d="M929 5154 c-23 -58 -49 -137 -49 -148 l0 -10 9 10 c12 12 62 166 56
172 -2 3 -10 -8 -16 -24z" />
    <path d="M2920 4970 l0 -10 51 0 50 0 -6 10 c-3 6 -26 10 -51 10 l-44 0 0 -10z" />
    <path d="M7100 4976 c0 -14 21 -58 26 -54 8 8 -7 58 -17 58 -5 0 -9 -2 -9 -4z" />
    <path d="M1746 4513 c-43 -67 -76 -127 -76 -138 0 -3 4 -5 9 -5 5 0 18 21 30
48 27 58 57 110 76 129 15 14 20 33 10 33 -3 0 -25 -30 -49 -67z" />
    <path d="M1646 4319 c-22 -54 -28 -79 -19 -79 10 0 47 100 39 107 -3 4 -12 -9
-20 -28z" />
    <path d="M7220 4281 c0 -17 5 -33 10 -36 l10 -6 0 35 c0 20 -4 36 -10 36 -5 0
-10 -13 -10 -29z" />
    <path d="M740 4124 l0 -35 10 6 c6 3 10 19 10 36 0 16 -4 29 -10 29 -5 0 -10
-16 -10 -36z" />
    <path d="M740 4006 c0 -20 5 -36 10 -36 6 0 10 13 10 29 0 17 -4 33 -10 36
l-10 6 0 -35z" />
    <path d="M1580 3896 c0 -14 5 -28 10 -31 l10 -6 0 30 c0 17 -4 31 -10 31 -5 0
-10 -11 -10 -24z" />
    <path d="M7227 3883 c-11 -10 -8 -53 3 -53 6 0 10 14 10 30 0 31 -2 35 -13 23z" />
    <path d="M1612 3708 c3 -7 15 -43 27 -79 12 -36 29 -75 37 -85 l16 -19 -7 20
c-35 108 -61 175 -69 175 -4 0 -6 -6 -4 -12z" />
    <path d="M6347 3498 c-15 -33 -25 -63 -23 -66 4 -4 66 111 66 123 0 3 -3 5 -7
5 -5 -1 -20 -28 -36 -62z" />
    <path d="M1713 3466 c8 -21 86 -136 92 -136 12 0 3 19 -20 46 -14 16 -32 43
-40 61 -9 18 -21 35 -27 39 l-11 7 6 -17z" />
    <path d="M7110 3196 c-12 -33 -12 -36 -1 -36 10 0 25 50 17 58 -3 2 -10 -7
-16 -22z" />
    <path d="M6065 3155 c-22 -19 -35 -35 -29 -35 14 0 92 69 79 69 -5 1 -28 -15
-50 -34z" />
    <path d="M7095 3139 c-28 -77 -64 -193 -60 -197 3 -3 7 -3 9 -1 10 11 67 201
62 206 -3 3 -8 0 -11 -8z" />
    <path d="M2065 3105 c36 -30 169 -92 253 -119 89 -28 102 -30 102 -18 0 4 -37
17 -83 30 -45 12 -125 44 -177 70 -110 54 -122 59 -95 37z" />
    <path d="M5975 3090 c-16 -11 -51 -29 -77 -41 -27 -12 -48 -25 -48 -30 0 -5 3
-9 8 -9 10 0 162 89 162 95 0 9 -15 4 -45 -15z" />
    <path d="M5768 2992 c-27 -8 -48 -20 -48 -24 l0 -9 23 7 c40 12 87 33 87 38 0
8 -8 7 -62 -12z" />
    <path d="M5663 2963 c-13 -2 -23 -9 -23 -15 l0 -10 28 7 c15 3 31 11 37 16 l9
9 -14 -1 c-8 -1 -25 -4 -37 -6z" />
    <path d="M2525 2950 c3 -5 22 -10 41 -10 19 0 34 5 34 10 l0 10 -41 0 -40 0 6
-10z" />
    <path d="M3155 2940 c3 -5 26 -10 49 -10 l44 0 5 -22 c4 -12 9 -19 12 -16 3 3
3 17 -1 32 l-6 26 -55 0 -54 0 6 -10z" />
    <path d="M4624 2931 l6 -9 250 -1 250 -2 0 11 0 10 -256 0 -255 0 5 -9z" />
    <path d="M5490 2930 c0 -5 13 -10 29 -10 17 0 33 5 36 10 l6 10 -35 0 c-20 0
-36 -4 -36 -10z" />
    <path d="M6981 2825 c-12 -26 -21 -49 -21 -51 0 -2 4 -4 9 -4 11 0 46 88 38
96 -3 3 -15 -16 -26 -41z" />
    <path d="M6936 2721 c-18 -35 -19 -41 -7 -41 10 0 34 61 27 68 -3 2 -12 -10
-20 -27z" />
    <path d="M1050 2695 c0 -13 62 -127 66 -122 6 5 -53 127 -61 127 -3 0 -5 -2
-5 -5z" />
    <path d="M6857 2563 c-29 -57 -32 -67 -17 -58 16 10 52 85 47 98 -2 7 -16 -11
-30 -40z" />
    <path d="M6715 2319 c-68 -105 -77 -124 -46 -92 11 12 21 27 21 33 0 5 5 10
10 10 6 0 10 5 10 12 0 6 11 26 25 44 14 18 25 37 25 42 0 6 5 12 12 14 6 2 9
10 7 17 l-5 13 -59 -93z" />
    <path d="M1270 2305 c0 -10 53 -85 57 -81 3 2 -8 23 -23 45 -25 39 -34 48 -34
36z" />
    <path d="M6340 1845 c-24 -25 -41 -48 -37 -51 4 -4 8 -5 10 -3 1 2 20 23 41
46 22 24 37 45 35 48 -3 2 -25 -15 -49 -40z" />
    <path d="M6220 1725 c-24 -25 -40 -45 -34 -45 5 0 30 20 54 45 24 25 40 45 34
45 -5 0 -30 -20 -54 -45z" />
    <path d="M5737 1353 c-20 -14 -35 -28 -33 -30 4 -4 86 46 86 53 0 9 -17 1 -53
-23z" />
  </g>
  <g transform="translate(0.000000,818.000000) scale(0.100000,-0.100000)" fill="#5975ca" stroke="none">
    <path d="M3805 7300 l-6 -10 30 0 c16 0 33 5 36 10 l6 10 -30 0 c-16 0 -33 -4
-36 -10z" />
    <path d="M4125 7300 c3 -5 21 -10 38 -10 l32 0 -15 10 c-8 5 -25 10 -38 10
l-23 0 6 -10z" />
    <path d="M2995 7154 c-22 -8 -46 -17 -54 -19 -8 -3 -12 -8 -9 -10 6 -6 99 24
113 36 l9 9 -9 -1 c-6 0 -28 -7 -50 -15z" />
    <path d="M5350 7005 c0 -8 162 -87 167 -81 3 2 -31 23 -76 45 -81 41 -91 45
-91 36z" />
    <path d="M2487 6939 c-22 -11 -37 -23 -34 -25 5 -6 87 33 87 41 0 9 -14 4 -53
-16z" />
    <path d="M5475 6820 c-115 -3 -211 -7 -212 -8 -2 -1 -3 -247 -3 -546 l0 -545
10 -6 10 -6 0 545 0 546 210 0 210 0 0 15 c0 8 -3 14 -7 13 -5 -1 -102 -5
-218 -8z" />
    <path d="M5693 6653 l-253 -3 0 -13 0 -12 257 5 256 5 5 13 c2 6 0 11 -5 10
-4 -2 -122 -4 -260 -5z" />
    <path d="M6715 6640 l6 -10 245 0 244 0 -2 -375 -3 -375 13 0 12 0 -2 383 -3
382 -258 3 -258 2 6 -10z" />
    <path d="M2870 4970 c0 -5 16 -10 36 -10 l35 0 -6 10 c-3 6 -19 10 -36 10 -16
0 -29 -4 -29 -10z" />
    <path d="M1642 4299 c-5 -13 -12 -34 -16 -46 l-7 -23 8 0 c5 0 14 19 20 42 13
47 9 65 -5 27z" />
    <path d="M1587 4023 c-11 -10 -8 -111 3 -118 l10 -6 0 65 c0 36 -1 66 -3 66
-2 0 -7 -3 -10 -7z" />
    <path d="M1680 3535 c0 -13 32 -66 36 -62 6 6 -23 67 -31 67 -3 0 -5 -2 -5 -5z" />
    <path d="M7095 3129 c-27 -73 -54 -163 -50 -167 5 -5 6 -4 40 97 14 41 23 77
20 79 -2 3 -7 -1 -10 -9z" />
    <path d="M5753 2987 c-17 -7 -35 -16 -40 -21 l-8 -8 25 7 c44 14 70 24 70 30
0 7 -10 5 -47 -8z" />
    <path d="M3966 2968 c-4 -9 -5 -22 -1 -28 l6 -10 112 1 112 1 -40 9 c-22 4
-70 8 -107 8 l-67 1 -4 18 -4 17 -7 -17z" />
    <path d="M2585 2950 l6 -10 102 1 102 0 -20 9 c-11 5 -60 9 -108 9 l-88 1 6
-10z" />
    <path d="M5115 2930 l6 -10 189 0 c104 0 191 4 194 8 2 4 -85 9 -196 10 l-200
3 7 -11z" />
    <path d="M6910 2660 c-12 -23 -19 -44 -16 -47 2 -3 14 14 26 37 12 23 19 44
16 47 -2 3 -14 -14 -26 -37z" />
  </g>
  <g transform="translate(0.000000,818.000000) scale(0.100000,-0.100000)" fill="#5b77c5" stroke="none">
    <path d="M5940 6894 l0 -255 10 6 10 6 0 244 0 245 378 3 377 2 -387 3 -388 2
0 -256z" />
    <path d="M5030 7135 c0 -6 29 -18 70 -29 l25 -7 -25 14 c-31 18 -70 30 -70 22z" />
    <path d="M5942 5636 l3 -259 10 -4 10 -3 -3 252 -3 253 -10 10 -9 9 2 -258z" />
    <path d="M5768 5465 l3 -255 9 0 10 0 0 255 0 255 -12 0 -13 0 3 -255z" />
    <path d="M1095 5540 c-9 -18 -14 -34 -11 -37 2 -3 12 9 21 27 9 18 14 34 11
37 -2 3 -12 -9 -21 -27z" />
    <path d="M6880 5514 c0 -8 4 -13 9 -10 5 3 12 -1 15 -10 4 -9 9 -14 12 -11 8
7 -14 47 -26 47 -6 0 -10 -7 -10 -16z" />
    <path d="M7075 5070 c14 -47 26 -73 30 -68 7 6 -15 70 -27 83 l-10 10 7 -25z" />
    <path d="M2810 4970 l0 -10 41 0 40 0 -6 10 c-3 6 -22 10 -41 10 -19 0 -34 -4
-34 -10z" />
    <path d="M5390 4950 c0 -5 16 -10 36 -10 l35 0 -6 10 c-3 6 -19 10 -36 10 -16
0 -29 -4 -29 -10z" />
    <path d="M7230 4063 l0 -118 10 15 c5 8 10 59 10 112 l0 97 -10 6 -10 6 0
-118z" />
    <path d="M1620 3698 c0 -5 18 -59 35 -107 3 -8 8 -12 10 -9 6 6 -24 99 -36
113 -5 5 -9 6 -9 3z" />
    <path d="M2020 3130 c23 -18 50 -26 50 -16 0 5 -60 36 -69 36 -3 0 5 -9 19
-20z" />
    <path d="M2808 2943 c17 -2 47 -2 65 0 17 2 3 4 -33 4 -36 0 -50 -2 -32 -4z" />
    <path d="M4207 2933 c18 -2 50 -2 70 0 21 2 7 4 -32 4 -38 0 -55 -2 -38 -4z" />
    <path d="M6865 2570 c-14 -29 -24 -54 -21 -57 2 -3 17 18 31 47 14 29 24 54
21 57 -2 3 -17 -18 -31 -47z" />
    <path d="M5407 1164 c-16 -9 -27 -18 -24 -21 6 -5 67 24 67 32 0 8 -14 5 -43
-11z" />
    <path d="M2955 1002 c13 -12 77 -34 83 -27 5 4 -21 16 -68 30 l-25 7 10 -10z" />
    <path d="M4993 997 c-17 -7 -35 -16 -40 -21 l-8 -8 25 7 c44 14 70 24 70 30 0
7 -10 5 -47 -8z" />
  </g>
  <g transform="translate(0.000000,818.000000) scale(0.100000,-0.100000)" fill="#d3d3d5" stroke="none">
    <path d="M5940 6900 l0 -250 -250 0 c-137 0 -250 -3 -250 -7 0 -5 115 -7 255
-5 l254 3 3 254 c2 140 0 255 -4 255 -5 0 -8 -112 -8 -250z" />
    <path d="M6710 6648 c0 -4 115 -9 255 -10 140 -2 255 0 255 4 0 4 -115 9 -255
10 -140 2 -255 0 -255 -4z" />
    <path d="M5945 5630 l0 -255 379 -3 c209 -1 383 1 387 5 5 5 -165 7 -376 5
l-385 -2 -3 252 -3 253 1 -255z" />
    <path d="M1096 5541 c-36 -69 -32 -78 4 -12 17 30 28 56 26 59 -3 2 -16 -19
-30 -47z" />
    <path d="M5820 4875 c0 -7 101 -57 106 -53 2 2 -21 16 -51 31 -30 15 -55 25
-55 22z" />
    <path d="M1690 1775 c18 -19 36 -32 39 -30 6 7 -50 65 -63 65 -5 0 5 -16 24
-35z" />
    <path d="M2500 1195 c0 -6 96 -55 107 -55 4 0 -15 14 -44 30 -52 30 -63 34
-63 25z" />
  </g>
  <g transform="translate(0.000000,818.000000) scale(0.100000,-0.100000)" fill="#dbdbdc" stroke="none">
    <path d="M5483 6813 c-117 -2 -213 -7 -213 -11 0 -9 436 1 446 11 4 4 1 6 -7
5 -8 -2 -110 -4 -226 -5z" />
    <path d="M5437 6643 c-4 -3 -7 -174 -7 -379 l0 -373 10 -6 10 -6 0 385 c0 212
-1 386 -3 386 -2 0 -7 -3 -10 -7z" />
    <path d="M915 5119 c-25 -70 -33 -99 -26 -99 8 0 43 102 36 108 -3 3 -7 -1
-10 -9z" />
    <path d="M2786 4968 c3 -5 74 -7 157 -7 179 2 168 7 -25 11 -75 2 -134 0 -132
-4z" />
    <path d="M5375 4949 c4 -5 31 -9 62 -9 31 0 54 2 52 4 -2 2 -30 6 -62 9 l-57
6 5 -10z" />
    <path d="M747 4233 c-11 -10 -8 -53 3 -53 6 0 10 14 10 30 0 31 -2 35 -13 23z" />
    <path d="M740 3936 c0 -14 5 -28 10 -31 l10 -6 0 30 c0 17 -4 31 -10 31 -5 0
-10 -11 -10 -24z" />
    <path d="M882 3120 c3 -8 15 -46 28 -85 12 -38 27 -74 33 -80 l10 -10 -5 15
c-3 8 -15 47 -28 85 -12 39 -27 75 -33 80 l-10 10 5 -15z" />
    <path d="M2440 1225 c0 -8 61 -37 67 -31 3 2 -9 12 -26 20 -31 17 -41 19 -41
11z" />
    <path d="M5428 1173 c-37 -20 -66 -38 -64 -40 5 -5 146 65 146 72 0 9 -15 3
-82 -32z" />
    <path d="M2865 1033 c11 -11 166 -65 172 -59 3 2 -103 43 -167 64 l-15 5 10
-10z" />
    <path d="M5017 1003 c-37 -14 -66 -27 -64 -29 5 -5 130 37 142 47 l9 9 -9 -1
c-6 0 -40 -12 -78 -26z" />
  </g>
  <g transform="translate(0.000000,818.000000) scale(0.100000,-0.100000)" fill="#b8bbc4" stroke="none">
    <path d="M5440 5888 c0 -4 115 -9 255 -10 140 -2 255 0 255 4 0 4 -115 9 -255
10 -140 2 -255 0 -255 -4z" />
    <path d="M6968 5893 c-142 -2 -258 -7 -258 -11 0 -4 114 -6 252 -4 l253 3 9 9
c6 6 8 9 6 8 -3 -2 -121 -4 -262 -5z" />
    <path d="M3273 4963 c15 -2 39 -2 55 0 15 2 2 4 -28 4 -30 0 -43 -2 -27 -4z" />
    <path d="M7061 3019 c-12 -35 -17 -59 -12 -54 11 12 42 107 37 112 -2 2 -13
-24 -25 -58z" />
  </g>
  <g transform="translate(0.000000,818.000000) scale(0.100000,-0.100000)" fill="#7082b8" stroke="none">
    <path d="M5445 6260 c0 -212 1 -298 2 -192 2 105 2 279 0 385 -1 105 -2 19 -2
-193z" />
    <path d="M906 5084 c-9 -26 -16 -52 -15 -58 0 -6 9 13 20 43 10 30 17 56 15
58 -2 2 -11 -17 -20 -43z" />
    <path d="M2608 4973 c23 -2 61 -2 85 0 23 2 4 4 -43 4 -47 0 -66 -2 -42 -4z" />
    <path d="M3873 4963 c20 -2 54 -2 75 0 20 2 3 4 -38 4 -41 0 -58 -2 -37 -4z" />
    <path d="M5238 4953 c17 -2 47 -2 65 0 17 2 3 4 -33 4 -36 0 -50 -2 -32 -4z" />
  </g>
  <g transform="translate(0.000000,818.000000) scale(0.100000,-0.100000)" fill="#637abf" stroke="none">
    <path d="M2743 4973 c15 -2 39 -2 55 0 15 2 2 4 -28 4 -30 0 -43 -2 -27 -4z" />
    <path d="M901 3071 c12 -34 23 -60 25 -58 5 5 -26 100 -37 112 -5 5 0 -19 12
-54z" />
    <path d="M2450 1225 c0 -2 23 -16 50 -30 28 -14 50 -23 50 -20 0 2 -22 16 -50
30 -27 14 -50 23 -50 20z" />
  </g>
  <g transform="translate(0.000000,818.000000) scale(0.100000,-0.100000)" fill="#929ab3" stroke="none">
    <path d="M6714 6895 c0 -143 2 -200 3 -127 2 73 2 190 0 260 -1 70 -3 10 -3
-133z" />
    <path d="M6714 5630 c0 -140 2 -198 3 -127 2 70 2 184 0 255 -1 70 -3 12 -3
-128z" />
    <path d="M4833 2933 c15 -2 39 -2 55 0 15 2 2 4 -28 4 -30 0 -43 -2 -27 -4z" />
  </g>
  <g transform="translate(0.000000,818.000000) scale(0.100000,-0.100000)" fill="#b0b3bd" stroke="none">
    <path d="M5272 6268 c-1 -301 1 -549 6 -551 6 -5 6 401 -1 903 -1 107 -3 -51
-5 -352z" />
  </g>
  <g transform="translate(0.000000,818.000000) scale(0.100000,-0.100000)" fill="#a4aab9" stroke="none">
    <path d="M7225 6260 c0 -206 1 -291 2 -187 2 103 2 271 0 375 -1 103 -2 18 -2
-188z" />
  </g>
  <g transform="translate(0.000000,818.000000) scale(0.100000,-0.100000)" fill="#c4c5cb" stroke="none">
    <path d="M5778 5467 c1 -138 6 -255 10 -259 4 -4 6 106 4 245 -1 138 -6 255
-10 259 -4 4 -6 -106 -4 -245z" />
    <path d="M1695 4410 c-14 -27 -23 -50 -20 -50 2 0 16 23 30 50 14 28 23 50 20
50 -2 0 -16 -22 -30 -50z" />
    <path d="M1050 2696 c0 -10 60 -126 65 -126 3 0 -9 28 -26 63 -33 65 -39 75
-39 63z" />
  </g>
  <g transform="translate(0.000000,818.000000) scale(0.100000,-0.100000)" fill="#7c8bb5" stroke="none">
    <path d="M6878 5365 c-2 -90 0 -161 4 -157 9 9 15 322 6 322 -4 0 -8 -74 -10
-165z" />
    <path d="M3743 4963 c20 -2 54 -2 75 0 20 2 3 4 -38 4 -41 0 -58 -2 -37 -4z" />
    <path d="M5138 4953 c18 -2 45 -2 60 0 15 2 0 4 -33 4 -33 0 -45 -2 -27 -4z" />
  </g>
  <g transform="translate(0.000000,818.000000) scale(0.100000,-0.100000)" fill="#9ba2b7" stroke="none" />
  <g transform="translate(0.000000,818.000000) scale(0.100000,-0.100000)" fill="#cbccd1" stroke="none">
    <path d="M6883 5535 c0 -8 4 -15 7 -15 4 0 13 -14 20 -30 7 -17 15 -29 17 -26
4 4 -34 86 -41 86 -1 0 -3 -7 -3 -15z" />
    <path d="M743 4065 c0 -33 2 -45 4 -27 2 18 2 45 0 60 -2 15 -4 0 -4 -33z" />
  </g>
  <g transform="translate(0.000000,818.000000) scale(0.100000,-0.100000)" fill="#6374a9" stroke="none">
    <path d="M5403 5713 c70 -2 184 -2 255 0 70 1 12 3 -128 3 -140 0 -198 -2
-127 -3z" />
    <path d="M2978 2943 c17 -2 47 -2 65 0 17 2 3 4 -33 4 -36 0 -50 -2 -32 -4z" />
    <path d="M4418 2933 c23 -2 59 -2 80 0 20 2 1 4 -43 4 -44 0 -61 -2 -37 -4z" />
  </g>
  <g transform="translate(0.000000,818.000000) scale(0.100000,-0.100000)" fill="#8894b5" stroke="none" />
  <g transform="translate(0.000000,818.000000) scale(0.100000,-0.100000)" fill="#7380a5" stroke="none">
    <path d="M3083 2943 c15 -2 39 -2 55 0 15 2 2 4 -28 4 -30 0 -43 -2 -27 -4z" />
    <path d="M4548 2933 c17 -2 47 -2 65 0 17 2 3 4 -33 4 -36 0 -50 -2 -32 -4z" />
  </g>
  <g transform="translate(0.000000,818.000000) scale(0.100000,-0.100000)" fill="#566caf" stroke="none">
    <path d="M6063 5203 c153 -2 401 -2 550 0 150 1 25 2 -278 2 -302 0 -425 -1
-272 -2z" />
  </g>
  <g transform="translate(0.000000,818.000000) scale(0.100000,-0.100000)" fill="#8a92ab" stroke="none" />
  <g transform="translate(0.000000,818.000000) scale(0.100000,-0.100000)" fill="#7d88a7" stroke="none">
    <path d="M4658 2933 c18 -2 45 -2 60 0 15 2 0 4 -33 4 -33 0 -45 -2 -27 -4z" />
  </g>
  <g transform="translate(0.000000,818.000000) scale(0.100000,-0.100000)" fill="#617aba" stroke="none" />
</svg>